HIERARCHY
ROOT Hips
{
	OFFSET 0.000000 0.000000 0.000000
	CHANNELS 6 Xposition Yposition Zposition Zrotation Yrotation Xrotation 
	JOINT LHipJoint
	{
		OFFSET 0.000000 0.000000 0.000000
		CHANNELS 3 Zrotation Yrotation Xrotation
		JOINT LeftUpLeg
		{
			OFFSET 1.363060 -1.794630 0.839290
			CHANNELS 3 Zrotation Yrotation Xrotation
			JOINT LeftLeg
			{
				OFFSET 2.448110 -6.726130 0.000000
				CHANNELS 3 Zrotation Yrotation Xrotation
				JOINT LeftFoot
				{
					OFFSET 2.562200 -7.039590 0.000000
					CHANNELS 3 Zrotation Yrotation Xrotation
					JOINT LeftToeBase
					{
						OFFSET 0.157640 -0.433110 2.322550
						CHANNELS 3 Zrotation Yrotation Xrotation
						End Site
						{
							OFFSET 0.000000 0.000000 0.000000
						}
					}
				}
			}
		}
	}
	JOINT RHipJoint
	{
		OFFSET 0.000000 0.000000 0.000000
		CHANNELS 3 Zrotation Yrotation Xrotation
		JOINT RightUpLeg
		{
			OFFSET -1.305520 -1.794630 0.839290
			CHANNELS 3 Zrotation Yrotation Xrotation
			JOINT RightLeg
			{
				OFFSET -2.542530 -6.985550 0.000000
				CHANNELS 3 Zrotation Yrotation Xrotation
				JOINT RightFoot
				{
					OFFSET -2.568260 -7.056230 0.000000
					CHANNELS 3 Zrotation Yrotation Xrotation
					JOINT RightToeBase
					{
						OFFSET -0.164730 -0.452590 2.363150
						CHANNELS 3 Zrotation Yrotation Xrotation
						End Site
						{
							OFFSET 0.000000 0.000000 0.000000
						}
					}
				}
			}
		}
	}
}
MOTION
Frames: 30
Frame Time: 0.008333
2.114966 16.695829 0.182350 68.638565 86.640985 74.535756 -12.766752 4.814847 -1.181383 2.361581 19.840543 -5.198852 -0.008787 2.577872 46.724088 0.884479 -12.121574 24.122501 -6.400300 -0.000000 -71.937001 7.346265 -1.309069 2.594374 18.191484 -0.211672 -31.794080 2.149009 -0.342894 21.084083 -4.308718 -15.798883 -13.838858 -179.482600 0.000001 -9.707900
2.273703 16.631530 0.218364 62.188042 86.760954 67.902102 -13.048291 4.653586 -1.322559 3.484611 20.208249 -6.443241 0.154224 2.756258 49.844006 1.016285 -9.592874 23.661237 -5.214600 -0.000000 -68.280400 7.113156 -1.388051 2.330332 18.989991 -0.472051 -32.548177 2.135623 -0.702998 24.491162 -4.257060 -15.296662 -15.012175 -179.075899 0.000000 -11.310700
2.426549 16.567449 0.254617 51.176251 86.614480 56.736672 -13.339681 4.573701 -1.460016 4.460204 20.456853 -7.730437 0.274246 3.025859 52.918861 1.159951 -6.494000 22.729743 -3.738100 0.000000 -64.388900 6.890438 -1.355812 2.030200 19.777473 -0.682684 -33.114361 2.084299 -0.978046 27.650062 -4.204228 -14.800667 -16.220741 -178.670000 -0.000000 -12.548701
2.573831 16.505139 0.291577 33.095954 86.029186 38.563060 -13.433051 4.707922 -1.598086 5.361008 20.667831 -9.081662 0.306084 3.462332 55.892985 1.315325 -3.063538 21.347999 -2.147500 0.000000 -60.260300 6.887281 -1.067139 1.701670 20.642322 -0.729588 -33.405726 1.978586 -1.126112 30.489855 -4.152490 -14.328715 -17.442686 -178.264400 -0.000000 -13.538000
2.716049 16.445996 0.329588 9.976041 85.448066 15.408535 -12.833167 4.866087 -1.751588 6.446816 20.686941 -10.498469 0.352693 3.927802 58.832385 1.475403 0.437216 19.578693 -0.621601 0.000000 -55.963800 7.496412 -0.642539 1.453193 21.755822 -0.638727 -33.468861 1.902252 -1.254145 32.838124 -4.119241 -13.995444 -18.677257 -177.858700 -0.000000 -14.377700
2.853809 16.391254 0.369171 -9.201384 85.533502 -3.827013 -12.125083 4.509817 -1.899266 7.520969 20.185880 -11.922150 0.608533 4.073921 61.782544 1.650044 3.798962 17.517390 0.694200 -0.000000 -51.597400 8.086295 -0.672201 1.339078 22.839595 -0.658232 -33.531324 1.971065 -1.533725 34.640373 -4.139268 -13.861797 -19.994803 -177.453900 -0.000000 -15.144800
2.987698 16.341961 0.410689 -20.525782 85.573208 -15.194769 -11.890403 3.997063 -2.008078 8.261575 19.445810 -13.368347 0.903368 4.121935 64.540131 1.837462 6.853412 15.273408 1.707901 -0.000000 -47.318501 8.218321 -0.903312 1.231450 23.692339 -0.649083 -33.488291 2.065707 -1.796674 36.097965 -4.192580 -13.783292 -21.345106 -177.053100 -0.000000 -15.892200
3.118401 16.298945 0.454475 -26.069746 85.295761 -20.717864 -11.858643 3.585541 -2.077936 8.754963 18.632211 -14.857775 1.146841 4.221351 67.031610 2.016788 9.460198 12.949585 2.384300 -0.000000 -43.250500 8.180785 -1.065390 1.114275 24.420238 -0.486529 -33.263450 2.132337 -1.970803 37.259352 -4.261857 -13.731088 -22.654271 -176.661900 0.000000 -16.648100
3.246490 16.262822 0.500763 -28.137192 84.792962 -22.695710 -11.870224 3.278551 -2.112062 9.072811 17.747788 -16.385207 1.344952 4.362230 69.246562 2.169512 11.533681 10.627293 2.734400 -0.000000 -39.479600 8.114755 -1.139770 1.005774 25.065164 -0.174255 -32.886656 2.176823 -2.073037 38.136675 -4.341592 -13.710530 -23.881790 -176.288299 0.000000 -17.416800
3.372604 16.234020 0.549569 -28.193682 84.153670 -22.599500 -11.885196 3.048469 -2.110868 9.245265 16.786694 -17.938459 1.507951 4.518856 71.173538 2.281401 13.035633 8.362375 2.800700 0.000000 -36.046600 8.050029 -1.150446 0.916148 25.629259 0.261048 -32.399742 2.206998 -2.122847 38.755171 -4.426569 -13.715944 -24.995107 -175.942500 -0.000000 -18.185000
3.497322 16.212743 0.600604 -27.110868 83.429534 -21.306869 -11.898929 2.872136 -2.074782 9.294598 15.754304 -19.503823 1.639698 4.672500 72.800251 2.343154 13.967405 6.188992 2.644000 0.000001 -32.967300 7.986001 -1.120128 0.849436 26.111331 0.793079 -31.837817 2.227799 -2.134239 39.145308 -4.510626 -13.733838 -25.966293 -175.635699 0.000000 -18.912900
3.621092 16.199161 0.653793 -25.290593 82.647898 -19.229394 -11.913853 2.736818 -2.003747 9.227755 14.660909 -21.063218 1.738748 4.811888 74.111489 2.351709 14.371815 4.124034 2.333299 0.000000 -30.185700 7.919689 -1.062721 0.803174 26.499199 1.381411 -31.230452 2.241686 -2.116419 39.344753 -4.584347 -13.733028 -26.780122 -175.379900 0.000000 -19.570900
3.744383 16.193225 0.708728 -23.093694 81.827200 -16.736091 -11.932639 2.625409 -1.899017 9.066288 13.520978 -22.602205 1.803470 4.927111 75.098516 2.310841 14.324530 2.181694 1.937901 0.000000 -27.665000 7.845724 -0.994784 0.775714 26.797833 1.994398 -30.596725 2.253250 -2.077781 39.376333 -4.640684 -13.688641 -27.429268 -175.185100 -0.000000 -20.125700
3.867605 16.194854 0.764992 -20.770205 80.977373 -14.084072 -11.954888 2.522449 -1.762435 8.833635 12.352391 -24.109388 1.832452 5.010885 75.756248 2.231041 13.933964 0.379945 1.520100 -0.000001 -25.384400 7.761627 -0.930117 0.765055 27.016750 2.603028 -29.946823 2.267718 -2.024454 39.251950 -4.673389 -13.575737 -27.914286 -175.059100 -0.000000 -20.536100
3.991117 16.203850 0.822423 -18.447730 80.102204 -11.408443 -11.977562 2.416875 -1.597126 8.546083 11.175656 -25.574111 1.825322 5.059153 76.083842 2.128052 13.333627 -1.262101 1.128800 0.000001 -23.322700 7.668281 -0.877418 0.767382 27.163725 3.178323 -29.282000 2.289931 -1.959861 38.977823 -4.677357 -13.369138 -28.249445 -175.005000 0.000000 -20.806700
4.115169 16.220089 0.880897 -16.210808 79.202360 -8.800751 -11.995969 2.300235 -1.406074 8.217179 10.012029 -26.989188 1.783941 5.069385 76.084804 2.020840 12.669364 -2.723099 0.794600 0.000000 -21.493500 7.568173 -0.842684 0.780676 27.246522 3.698981 -28.595704 2.324340 -1.885066 38.548233 -4.649303 -13.050315 -28.450017 -175.023500 -0.000000 -20.920400
4.240042 16.243292 0.940497 -14.099341 78.275739 -6.306224 -12.004956 2.166918 -1.194762 7.855866 8.884587 -28.347605 1.711946 5.041345 75.766804 1.928063 12.079542 -3.991923 0.528300 -0.000000 -19.900000 7.464355 -0.828107 0.802350 27.270984 4.151461 -27.874545 2.374548 -1.799188 37.951043 -4.588237 -12.608648 -28.536990 -175.109900 -0.000000 -20.897700
4.365891 16.273237 1.001564 -12.110105 77.320079 -3.927831 -12.000097 2.014871 -0.968496 7.462212 7.812624 -29.641180 1.614017 4.975725 75.139028 1.865821 11.681559 -5.070703 0.325201 0.000000 -18.531000 7.360273 -0.833494 0.831172 27.236057 4.528366 -27.102279 2.442507 -1.699908 37.170401 -4.494464 -12.041131 -28.527888 -175.258200 0.000001 -20.753200
4.492803 16.309618 1.064589 -10.224530 76.334296 -1.652295 -11.977549 1.843816 -0.733677 7.032544 6.812210 -30.860226 1.494942 4.873833 74.210417 1.845644 11.557417 -5.976932 0.171600 -0.000000 -17.350600 7.259386 -0.856862 0.866803 27.136669 4.830994 -26.261362 2.528616 -1.584181 36.187942 -4.370057 -11.355133 -28.436296 -175.459700 0.000000 -20.508100
4.620870 16.352118 1.130240 -8.414538 75.318826 0.543906 -11.933908 1.654983 -0.497081 6.558237 5.893993 -31.993082 1.358941 4.736935 72.987661 1.874048 11.748820 -6.738996 0.050800 -0.000000 -16.305800 7.165886 -0.894956 0.909863 26.962810 5.067535 -25.337337 2.631371 -1.448998 34.987529 -4.217966 -10.566531 -28.268547 -175.705500 0.000000 -20.183700
4.750111 16.400312 1.199171 -6.660561 74.276350 2.676362 -11.865734 1.450543 -0.265405 6.030953 5.064458 -33.026219 1.209501 4.565919 71.474140 1.952506 12.255603 -7.389188 -0.051600 -0.000000 -15.340401 7.085102 -0.943917 0.962448 26.703053 5.253250 -24.319496 2.747424 -1.291842 33.556654 -4.042080 -9.700134 -28.023527 -175.986100 0.000000 -19.800100
4.880354 16.453643 1.272039 -4.953700 73.209939 4.748182 -11.769660 1.234020 -0.043930 5.444665 4.327351 -33.945560 1.049627 4.361260 69.670496 2.077726 13.039388 -7.955517 -0.146100 0.000000 -14.404800 7.023529 -0.999906 1.029260 26.347943 5.410314 -23.200380 2.871368 -1.111052 31.888924 -3.847049 -8.789023 -27.692301 -176.291700 -0.000000 -19.375300
5.011608 16.511418 1.349322 -3.293995 72.122922 6.758959 -11.642160 1.009723 0.161667 4.794807 3.684163 -34.740442 0.881893 4.124034 67.575250 2.242105 14.030983 -8.455468 -0.237899 0.000000 -13.468200 6.989107 -1.057902 1.114604 25.889323 5.564592 -21.983390 2.995927 -0.906234 29.988466 -3.637510 -7.868764 -27.261676 -176.612700 -0.000000 -18.925400
5.143669 16.572802 1.431244 -1.688835 71.017583 8.698013 -11.480655 0.784047 0.348055 4.079934 3.135429 -35.401591 0.708943 3.855762 65.187669 2.434024 15.138914 -8.891534 -0.325900 0.000000 -12.526001 6.990496 -1.113854 1.223853 25.323587 5.740936 -20.676167 3.112165 -0.678928 27.872474 -3.417947 -6.975258 -26.716337 -176.939500 0.000000 -18.465500
5.276491 16.636802 1.517677 -0.160810 69.893565 10.542921 -11.283992 0.564667 0.512592 3.304532 2.682921 -35.925259 0.533394 3.559727 62.510019 2.638516 16.259414 -9.249148 -0.402300 0.000000 -11.605300 7.035170 -1.163982 1.361714 24.655188 5.964953 -19.293768 3.210608 -0.432524 25.569173 -3.193160 -6.142831 -26.042416 -177.263100 0.000000 -18.010200
5.409986 16.702290 1.608189 1.274940 68.749166 12.277937 -11.053205 0.360834 0.654206 2.472305 2.327103 -36.310822 0.357393 3.240707 59.548967 2.838835 17.290881 -9.498738 -0.452200 0.000000 -10.763801 7.129626 -1.206103 1.529314 23.890817 6.248682 -17.857482 3.282182 -0.173386 23.124572 -2.966323 -5.392884 -25.232046 -177.577000 -0.000000 -17.572600
5.544109 16.768100 1.701957 2.595277 67.580086 13.878534 -10.792479 0.182378 0.773660 1.592384 2.070403 -36.562041 0.182149 2.905254 56.318827 3.017688 18.142102 -9.603360 -0.456300 -0.000001 -10.073500 7.276242 -1.240346 1.725458 23.046078 6.595221 -16.390881 3.320223 0.089938 20.594649 -2.740281 -4.736944 -24.284675 -177.876500 -0.000000 -17.163200
5.678930 16.832959 1.797773 3.771773 66.381728 15.314198 -10.509684 0.038301 0.873357 0.679232 1.917375 -36.687661 0.007286 2.561371 52.843744 3.159044 18.741359 -9.527575 -0.396000 0.000000 -9.600700 7.471547 -1.269252 1.945965 22.146178 6.997794 -14.916089 3.322096 0.347578 18.041371 -2.517480 -4.175641 -23.208284 -178.158800 -0.000000 -16.788000
5.814529 16.895710 1.894220 4.784842 65.151025 16.562467 -10.215306 -0.064761 0.956726 -0.252213 1.870858 -36.699826 -0.169737 2.217258 49.157299 3.249777 19.042479 -9.246941 -0.259800 0.000000 -9.393601 7.707511 -1.297007 2.181794 21.219494 7.433191 -13.455530 3.290156 0.589162 15.531730 -2.298572 -3.692717 -22.021729 -178.423900 -0.000000 -16.448400
5.951249 16.955213 1.989688 5.609606 63.887828 17.598808 -9.922309 -0.124435 1.028061 -1.180132 1.934425 -36.618198 -0.353225 1.880700 45.305354 3.280218 19.022062 -8.754239 -0.048100 0.000000 -9.488600 7.969770 -1.328538 2.422654 20.303047 7.875621 -12.028771 3.231803 0.806361 13.126298 -2.084416 -3.267108 -20.751431 -178.671400 -0.000000 -16.146300
